<?xml version="1.0" encoding="UTF-8"?><svg id="Carnegie_Mellon_University" xmlns="http://www.w3.org/2000/svg" viewBox="0 0 144.68 12.81"><defs><style>.cls-1{fill:#6d6e71;}</style></defs><polygon class="cls-1" points="42.43 3.72 42.43 9.05 43.32 9.05 43.32 9.4 39.76 9.4 39.76 9.05 40.65 9.05 40.65 4.09 39.96 4.09 39.96 3.72 42.43 3.72"/><path class="cls-1" d="M7.34,.27h-.32c-.01,.27-.16,.39-.43,.39-.55,0-1.35-.67-2.29-.67C1.62,0,0,2.64,0,4.96s1.54,4.65,4.13,4.65c1.57,0,2.15-.74,2.57-.74,.27,0,.32,.24,.32,.54h.35v-3.2h-.35l-.08,.44c-.18,1.06-1,2.62-2.69,2.62-1.49,0-2.06-1.29-2.06-4.46C2.19,1.48,2.98,.36,4.3,.36c1.49,0,2.51,1.67,2.72,3h.32V.27Z"/><path class="cls-1" d="M11.92,7.87c-.03,.68-.41,1.24-1.02,1.24-.88,0-.91-.74-.91-1.3,0-.68,.08-1.13,.91-1.22l1.02-.1v1.39Zm2.35,.43c0,.33-.22,.72-.37,.72-.23,0-.28-.24-.28-.64v-2.96c0-1.47-1.38-1.83-2.7-1.83s-2.23,.63-2.23,1.35c0,.45,.26,.84,.84,.84,.49,0,.79-.32,.79-.77,0-.66-.68-.66-.68-.68,0-.29,.76-.39,1.2-.39,.97,0,1.09,.36,1.09,1.13v1.08l-1.26,.1c-1.17,.09-2.45,.4-2.45,1.74,0,1.12,1,1.57,2,1.57,.5,0,1.39-.19,1.73-.81,.23,.54,.71,.81,1.29,.81,.84,0,1.38-.5,1.38-1.26h-.33Z"/><polygon class="cls-1" points="134.03 3.7 134.03 9.03 134.92 9.03 134.92 9.38 131.36 9.38 131.36 9.03 132.25 9.03 132.25 4.07 131.36 4.07 131.36 3.7 134.03 3.7"/><path class="cls-1" d="M56.82,6.45L58.95,.34h2.94v.36h-.85V9.05h.84v.36h-3.54v-.36h.86V.8h-.03l-3,8.6h-.35L52.76,.64h-.03V7.95c0,1.04,.27,1.1,.97,1.1h.04v.36h-2.23v-.36h0c.74,0,.87-.43,.87-.98V.71h-.87V.34h3.23l2.08,6.11Z"/><path class="cls-1" d="M63.95,5.94v-.87c0-.86,.37-1.13,.81-1.13,.62,0,.81,.42,.81,1.13v.87h-1.62Zm0,.35h3.55c-.01-1.39-1.3-2.73-2.65-2.7-1.52,0-2.83,1.31-2.83,3.05s1.22,2.92,2.87,2.92,2.37-.98,2.65-2.25h-.35c-.28,1.2-.91,1.88-1.92,1.88-1.2,0-1.33-.94-1.33-1.81v-1.08Z"/><path class="cls-1" d="M117.45,5.92v-.87c0-.86,.37-1.13,.81-1.13,.62,0,.81,.42,.81,1.13v.87h-1.62Zm0,.35h3.55c-.01-1.39-1.3-2.73-2.65-2.7-1.52,0-2.83,1.31-2.83,3.05s1.22,2.92,2.87,2.92,2.37-.98,2.65-2.25h-.35c-.28,1.2-.91,1.88-1.92,1.88-1.2,0-1.33-.94-1.33-1.81v-1.08Z"/><polygon class="cls-1" points="67.52 .36 67.52 .68 68.41 .68 68.41 9.04 67.52 9.04 67.52 9.4 71.08 9.4 71.08 9.04 70.19 9.04 70.19 .36 67.52 .36"/><polygon class="cls-1" points="71.33 .36 71.33 .68 72.22 .68 72.22 9.04 71.33 9.04 71.33 9.4 74.88 9.4 74.88 9.04 73.99 9.04 73.99 .36 71.33 .36"/><path class="cls-1" d="M78.97,7.84c0,.97-.4,1.37-1.06,1.37s-1.06-.4-1.06-1.37v-2.53c0-.97,.4-1.37,1.06-1.37s1.06,.4,1.06,1.37v2.53Zm2.01-1.27c0-1.76-1.36-2.99-3.06-2.99s-3.06,1.22-3.06,2.99,1.37,2.99,3.06,2.99,3.06-1.22,3.06-2.99"/><path class="cls-1" d="M90.22,.65h.9V6.37c0,2,1.38,3.21,3.48,3.21,2.37,0,3.4-1.25,3.4-3.14V1.55c0-.75,.21-.89,.67-.89h.26V.31h-2.26v.34h.16c.66,0,.75,.2,.75,.95V6.57c0,1.75-1.09,2.55-2.19,2.55-1.88,0-2.25-1.26-2.37-2.91V.65h.84V.31h-3.64v.34Z"/><path class="cls-1" d="M112.53,9.53h.35l1.91-4.51c.39-.84,.59-.95,.89-.96h.12v-.35h-2.01v.36h.24c.37,0,.54-.02,.54,.31,0,.21-.07,.41-.22,.78l-.88,2.06-1.4-3.15h.71v-.36h-3.23v.36h.61l2.37,5.46Z"/><path class="cls-1" d="M126.88,9.53h.31c.06-.21,.2-.31,.45-.31,.33,0,.73,.31,1.46,.31,1.22,0,2.06-1.06,2.06-2.11,0-1.57-1.08-1.69-2.46-1.88-.72-.1-1.13-.21-1.13-.77,0-.61,.53-.86,1.22-.86,.97,0,1.34,.64,1.66,1.48h.3v-1.83h-.29c0,.15-.13,.28-.38,.28-.41,0-.75-.28-1.34-.28-1.29,0-1.92,1.09-1.92,1.92,0,1.66,1.26,1.8,2.24,1.92,.93,.12,1.26,.18,1.26,.77,0,.68-.57,.99-1.26,.99-.98,0-1.65-.85-1.88-1.79h-.31v2.16Z"/><polygon class="cls-1" points="109.08 3.7 109.08 9.03 109.97 9.03 109.97 9.38 106.42 9.38 106.42 9.03 107.31 9.03 107.31 4.07 106.42 4.07 106.42 3.7 109.08 3.7"/><path class="cls-1" d="M107.31,1.92c0,.49,.39,.89,.89,.89s.89-.39,.89-.89-.39-.89-.89-.89-.89,.39-.89,.89"/><path class="cls-1" d="M132.25,1.92c0,.49,.39,.89,.89,.89s.89-.39,.89-.89-.39-.89-.89-.89-.89,.39-.89,.89"/><path class="cls-1" d="M29.76,5.93v-.87c0-.86,.37-1.13,.81-1.13,.62,0,.81,.42,.81,1.13v.87h-1.62Zm0,.35h3.55c-.01-1.39-1.3-2.73-2.65-2.7-1.52,0-2.83,1.31-2.83,3.05s1.22,2.92,2.87,2.92,2.37-.98,2.65-2.25h-.35c-.28,1.2-.91,1.88-1.92,1.88-1.2,0-1.33-.94-1.33-1.81v-1.08Z"/><path class="cls-1" d="M45.31,5.93v-.87c0-.86,.37-1.13,.81-1.13,.46,0,.81,.27,.81,1.13v.87h-1.62Zm0,.35h3.55c-.01-1.39-1.3-2.73-2.65-2.7-1.52,0-2.83,1.31-2.83,3.05s1.22,2.92,2.87,2.92,2.37-.98,2.65-2.25h-.35c-.28,1.2-.91,1.88-1.92,1.88-1.2,0-1.33-.94-1.33-1.81v-1.08Z"/><path class="cls-1" d="M105.28,9.03v-3.48c0-1.39-.59-2.04-1.82-2.04-.86,0-1.74,.5-2.09,1.24h0v-1.04h-2.67v.35h.89v4.97h-.89v.35h3.43v-.35h-.76v-3.4c.11-.48,.72-1.58,1.42-1.58,.47,0,.7,.16,.7,1.03v3.95h-.73v.35h3.4v-.35h-.89Z"/><path class="cls-1" d="M83.64,3.74v1.04h0c.35-.75,1.22-1.24,2.09-1.24,1.22,0,1.82,.65,1.82,2.04v3.48h.89v.35h-3.4v-.35h.73v-3.95c0-.86-.24-1.03-.7-1.03-.7,0-1.31,1.1-1.42,1.58v3.4s.76,0,.76,0v.35h-3.43v-.35h.89V4.08h-.89v-.35h2.67Z"/><path class="cls-1" d="M26.93,9.05v-3.48c0-1.39-.59-2.04-1.82-2.04-.86,0-1.74,.5-2.09,1.24h0v-1.04h-2.67v.35h.89v4.97h-.89v.35h3.43v-.35h-.76v-3.4c.11-.48,.72-1.58,1.42-1.58,.47,0,.7,.16,.7,1.03v3.95h-.73v.35h3.4v-.35h-.89Z"/><path class="cls-1" d="M40.66,1.96c0,.49,.39,.89,.89,.89s.89-.39,.89-.89-.39-.89-.89-.89-.89,.39-.89,.89"/><path class="cls-1" d="M142.67,3.7v.37c.55,0,.79,.05,.79,.3,0,.21-.07,.41-.22,.78l-.88,2.06-1.4-3.14h.73v-.37h-4.44V.94h-.23c0,1.36-.93,2.77-2.23,2.77v.37h.68v3.98c0,1.22,1.06,1.47,1.42,1.47,.79,0,1.31-.32,1.71-.99l-.28-.15c-.15,.23-.36,.54-.68,.54-.26,0-.39-.18-.39-.61V4.07h1.8l2.35,5.43-.81,1.92h0s0,0,0,0h0s-.05,.06-.1,.06c-.05,0-.08-.03-.1-.07,0,0,0,0,0,0-.1-.37-.44-.64-.85-.64-.49,0-.89,.39-.89,.89,0,.35,.2,.64,.48,.79,0,0,0,0,0,0,0,0,.02,0,.03,.01,.02,0,.03,.02,.05,.02,.1,.04,.21,.07,.32,.07,.75,.06,1.13-.49,1.39-1.05,.06-.13,.11-.26,.16-.38,.11-.27,.31-.74,.54-1.29h0s.22-.52,.22-.52h0s1.81-4.28,1.81-4.28c.39-.84,.54-.95,1-.95h0v-.37h-2.01Z"/><path class="cls-1" d="M19.06,3.52c-.82,0-1.46,.57-1.7,1.21h-.03v-.98h-2.64v.36h.89v4.95h-.89v.35h3.85v-.35h-1.18v-2.77c0-.83,.22-1.68,.76-2.14,.03-.02,.07-.03,.11-.01,.04,.02,.06,.07,.06,.11h0c-.04,.1-.06,.22-.07,.37-.02,.47,.37,.84,.88,.84,.62,0,.98-.45,.98-.94,0-.62-.41-.99-1.02-.99Z"/><path class="cls-1" d="M38.45,3.94s.06-.02,.08,0,.02,.04,0,.07h0c-.08,.13-.11,.3-.05,.47s.21,.31,.39,.35c.37,.08,.69-.19,.69-.54,0-.23-.14-.4-.3-.5s-.36-.15-.57-.15c-.34,0-.69,.18-.95,.4,0,0,0,0,0,0-.06-.04-.12-.08-.18-.12-.35-.21-.82-.34-1.43-.34-1.08,0-2.24,.71-2.24,1.88,0,.71,.39,1.26,1.07,1.57v.03c-.5,.06-1.29,.41-1.29,1.48,0,.64,.3,1.13,.84,1.29v.03c-.52,.14-1.11,.66-1.11,1.28,0,.95,1.12,1.69,2.55,1.69,1.79,0,2.96-1.21,2.96-2.78,0-1.25-.62-1.82-1.88-1.79h-2.14c-.32,0-.54-.01-.54-.36,0-.32,.49-.67,.98-.67,.09,0,.23,.07,.26,.08,.16,.05,.32,.08,.53,.08,1.11,0,2.29-.63,2.29-1.85,0-.38-.16-.9-.47-1.22-.02-.02-.02-.05,0-.07,.12-.1,.27-.18,.34-.22,.06-.03,.1-.05,.15-.07h0Zm-1.71,5.92c1.29,0,1.63,.05,1.63,.84,0,.94-1.15,1.8-2.45,1.8-1.16,0-1.72-.71-1.74-1.33,0-.57,.28-.94,.63-1.31h1.93Zm.22-4.4c0,1.5-.35,1.55-.81,1.55-.52,0-.79-.1-.79-1.59,0-1.04,.12-1.49,.79-1.49,.61,0,.8,.04,.81,1.52h0Z"/><path class="cls-1" d="M125.51,3.47c-.82,0-1.46,.57-1.7,1.21h-.03v-.98h-2.64v.36h.89v4.95h-.89v.35h3.85v-.35h-1.18v-2.77c0-.83,.22-1.67,.76-2.14,.03-.02,.07-.03,.11-.01,.04,.02,.06,.07,.06,.11h0c-.03,.1-.06,.22-.07,.37-.02,.47,.37,.84,.88,.84,.62,0,.98-.45,.98-.94,0-.62-.41-.99-1.02-.99Z"/></svg>